<svg id="Layer_1" style="enable-background:new 0 0 512 512" version="1.1" viewBox="0 0 512 512" xml:space="preserve" xmlns="http://www.w3.org/2000/svg" xmlns:xlink="http://www.w3.org/1999/xlink"><style>.st1{fill:#fff}.st2{fill:#474648}.st6{fill:none}.st9{fill:#231f20}.st12{fill:#342214}.st15{fill-rule:evenodd;clip-rule:evenodd;fill:#e7e7e7}</style><path d="M83.1 374.7c10-8.9 34.1-27.7 108.8-61.8.6-.3 1.1-.5 1.7-.8l15.9-7.1c.5-.2 1.1-.5 1.6-.7v20.3l3.8 33c18.1-5.2 41.3-10.7 41.3-10.7l40.4 13.9 4.2-36.2v-20.2c1.4.6 2.9 1.3 4.3 1.9l3.5 1.6c5.5 2.4 10.7 4.8 15.7 7.1 72 33.1 94.7 51 104.5 59.8 3.4 3 6.5 7.7 9.3 13.6 21.2-33.4 33.5-73 33.5-115.5C471.7 153.6 375.1 57 256 57S40.3 153.6 40.3 272.8c0 42.5 12.3 82.1 33.5 115.5 2.8-5.9 5.9-10.6 9.3-13.6z" style="fill:#746764"/><path class="st1" d="M256.2 346.9s-23.1 5.5-41.3 10.7l15 129.4c1 .1 1.9.2 2.9.3l14.7-102.8h16.9l14.7 102.8 2.7-.3 14.8-126.2-40.4-13.9z"/><path class="st2" d="M215 357.6c18.1-5.2 41.3-10.7 41.3-10.7l40.4 13.9 4.2-36.2v-20.2l-2.1-.9-84.6-.6c-1 .5-2 .9-3.1 1.4v20.3l3.9 33z"/><path d="M211.1 222.2V324.6c12.3 14.6 28.6 22.1 44.9 22.3V180.7c-22.4 0-44.9 13.8-44.9 41.5z" style="fill:#dcc5a1"/><path d="M256 180.7v166.2c16.3.1 32.5-7.2 44.9-22.3V222.2c0-27.7-22.5-41.5-44.9-41.5z" style="fill:#edd9b4"/><path d="M211.1 271.8v3.2s22.9 27.2 44.8 28.2 44.9-26.3 44.9-26.3v-5" style="fill:#bc9f82"/><path class="st6" d="M211.1 271.8h89.7v31.4h-89.7z"/><path d="M162.8 157.7c-.1 0-.2 0-.3.1-7.9 2.6-10.7 15.8-6.2 29.4 2.7 8.3 7.6 14.9 12.7 18.2 4 19 8.8 32.9 11 36.4 9.9 16 53.8 51.2 76.1 51.2V38.3c-79.9 0-95.8 63.3-93.3 119.4z" style="fill-rule:evenodd;clip-rule:evenodd;fill:#dcc5a1"/><path d="M349.4 157.9c2.5-56.2-13.4-119.6-93.3-119.6V293c22.3 0 66.2-35.2 76.1-51.2 2.2-3.6 7.1-17.6 11.1-36.9 4.9-3.4 9.4-9.8 12-17.7 4.5-13.5 1.8-26.5-5.9-29.3z" style="fill-rule:evenodd;clip-rule:evenodd;fill:#edd9b4"/><path class="st9" d="M318 42.7C271.4 6 199.4 27.9 177.7 58.5c-27.2 38.3-17.6 96.3-11.1 140v-.2c.1.4.2.9.3 1.4.1.4.9 1.4 1 1.6.2.4 1.9 0 2.5-.3.2-.1.3-.4.3-.6.3-3.9 0-11.5 0-11.6-.5-6-1.8-11.8-2.7-17.7 4.4-27.5 17.3-33.3 24-66.5 1.4-2.2 3-4.4 4.6-6.5 1.9-2.4 3.8-4.7 6-6.8 1.2-.7 2.3-1.5 3.4-2.3 25.1-9.2 51 1.8 74.6 11.5 9.1 3.7 19.2 8.1 29.2 7.3 4.3-.3 7.5-3.1 7.9-6.7 11.3 34 20.7 49.7 26.2 74.6-.8 4.3-1.6 8.6-1.9 13.1 0 .1-.2 7.7 0 11.6 0 .2.1.5.3.6.6.3 2.2.7 2.5.3.1-.3.9-1.3 1-1.6.4-1.7.5-3.1.6-4.7.3-2.2.7-4.5 1-6.9 7-27 20.3-133.8-29.4-145.4m-70.7 36c-.8-.2-1.5-.5-2.3-.7 1.2.3 2.3.6 3.5.9-.4 0-.8-.1-1.2-.2"/><path class="st6" d="M211.1 289.4h89.7v57.5h-89.7z"/><g style="opacity:.1"><defs><path id="SVGID_1_" d="M247.5 384.5h17v.6h-17z"/></defs><clipPath id="SVGID_2_"><use style="overflow:visible" xlink:href="#SVGID_1_"/></clipPath><path style="clip-path:url(#SVGID_2_);fill-rule:evenodd;clip-rule:evenodd;fill:#010101" d="M247.6 384.5h16.8l.1.5h-17z"/></g><path class="st12" d="M209.9 153.1c6.2 0 11.3 5.7 11.3 12.8 0 7.1-5.1 12.8-11.3 12.8-6.2 0-11.3-5.8-11.3-12.8 0-7.1 5-12.8 11.3-12.8M301.7 153.1c6.2 0 11.3 5.7 11.3 12.8 0 7.1-5.1 12.8-11.3 12.8-6.2 0-11.3-5.8-11.3-12.8 0-7.1 5.1-12.8 11.3-12.8"/><path class="st1" d="M232.5 234.3c4 8.9 13 15.1 23.3 15.1 10.4 0 19.3-6.2 23.4-15.1h-46.7z"/><path class="st2" d="m305.1 306.3 3.5 1.6c-1.1-.6-2.3-1.1-3.5-1.6zM193.6 312.1l15.9-7.1c-5.5 2.4-10.8 4.8-15.9 7.1z"/><path class="st9" d="m211.1 304.3-1.6.7c.6-.2 1.1-.5 1.6-.7zM192 312.9c.5-.2 1.1-.5 1.7-.7l-1.7.7zM300.9 304.4c1.4.6 2.9 1.3 4.3 1.9l-4.3-1.9zM324.2 314.8l-15.6-6.9c5.5 2.4 10.7 4.8 15.7 7.1l-.1-.2z"/><path style="fill:#be1e2d" d="M256 488.5z"/><path class="st2" d="m190 478.2-29.8-60.4 35.2-23.5-43-20.1 39.5-61.4c-74.7 34.1-98.8 53-108.8 61.8-3.4 3-6.5 7.7-9.3 13.6 26.8 42.2 67.7 74.4 116.2 90zM428.9 374.7c-9.9-8.7-32.5-26.7-104.5-59.8l35 59.3-43 20.1 35.2 23.5-29.8 60.5c48.5-15.5 89.6-47.8 116.4-90-2.8-5.9-5.9-10.6-9.3-13.6z"/><path class="st9" d="M211.1 324.6v-20.3c-.5.2-1.1.5-1.6.7l-15.9 7.1c-.6.3-1.1.5-1.7.8l-39.5 61.4 43 20.1-35.2 23.5 29.8 60.4c12.8 4.1 26.2 7.1 40 8.7l-15-129.4-3.9-33zM316.4 394.3l43-20.1-35-59.3c-5-2.3-10.2-4.7-15.7-7.1l-3.5-1.6c-1.4-.6-2.8-1.3-4.3-1.9v20.2l-4.2 36.2L281.9 487c13.7-1.6 27.1-4.6 39.9-8.7l29.8-60.5-35.2-23.5z"/><path d="m264.4 384.5 11.2-17.3-19.3-20.3-20.1 20.3 11.4 17.3-14.7 102.8c7.6.8 15.3 1.2 23.1 1.2 7.8 0 15.5-.4 23.1-1.2l-14.7-102.8z" style="fill:#30a7df"/><path class="st15" d="m211.1 290.7-3.9 15.3 11 79.4 38-38.5zM300.9 290.7l3.1 15.1-10.4 80.4-37.4-39.3z"/></svg>